<svg xmlns="http://www.w3.org/2000/svg" xmlns:xlink="http://www.w3.org/1999/xlink" contentStyleType="text/css" height="704px" preserveAspectRatio="none" style="width:886px;height:704px;background:#FFFFFF;" version="1.1" viewBox="0 0 886 704" width="886px" zoomAndPan="magnify"><title>Creation of heartbeat check(success scenario)</title><defs/><g><text fill="#000000" font-family="sans-serif" font-size="14" font-weight="bold" lengthAdjust="spacing" textLength="321.0328" x="282.189" y="29.9659">Creation of heartbeat check(success scenario)</text><line style="stroke:#181818;stroke-width:0.5;stroke-dasharray:5.0,5.0;" x1="23" x2="23" y1="124.1358" y2="621.314"/><line style="stroke:#181818;stroke-width:0.5;stroke-dasharray:5.0,5.0;" x1="355.9474" x2="355.9474" y1="124.1358" y2="621.314"/><line style="stroke:#181818;stroke-width:0.5;stroke-dasharray:5.0,5.0;" x1="574.2765" x2="574.2765" y1="124.1358" y2="621.314"/><line style="stroke:#181818;stroke-width:0.5;stroke-dasharray:5.0,5.0;" x1="733.9327" x2="733.9327" y1="124.1358" y2="621.314"/><text fill="#000000" font-family="sans-serif" font-size="14" lengthAdjust="spacing" textLength="30.6179" x="5" y="120.0339">User</text><ellipse cx="23.3089" cy="53.5679" fill="#E2E2F0" rx="8" ry="8" style="stroke:#181818;stroke-width:0.5;"/><path d="M23.3089,61.5679 L23.3089,88.5679 M10.3089,69.5679 L36.3089,69.5679 M23.3089,88.5679 L10.3089,103.5679 M23.3089,88.5679 L36.3089,103.5679 " fill="none" style="stroke:#181818;stroke-width:0.5;"/><text fill="#000000" font-family="sans-serif" font-size="14" lengthAdjust="spacing" textLength="30.6179" x="5" y="635.28">User</text><ellipse cx="23.3089" cy="647.882" fill="#E2E2F0" rx="8" ry="8" style="stroke:#181818;stroke-width:0.5;"/><path d="M23.3089,655.882 L23.3089,682.882 M10.3089,663.882 L36.3089,663.882 M23.3089,682.882 L10.3089,697.882 M23.3089,682.882 L36.3089,697.882 " fill="none" style="stroke:#181818;stroke-width:0.5;"/><rect fill="#E2E2F0" height="33.0679" rx="2.5" ry="2.5" style="stroke:#181818;stroke-width:0.5;" width="62.1458" x="324.9474" y="90.0679"/><text fill="#000000" font-family="sans-serif" font-size="14" lengthAdjust="spacing" textLength="48.1458" x="331.9474" y="112.0339">Web UI</text><rect fill="#E2E2F0" height="33.0679" rx="2.5" ry="2.5" style="stroke:#181818;stroke-width:0.5;" width="62.1458" x="324.9474" y="620.314"/><text fill="#000000" font-family="sans-serif" font-size="14" lengthAdjust="spacing" textLength="48.1458" x="331.9474" y="642.28">Web UI</text><rect fill="#E2E2F0" height="33.0679" rx="2.5" ry="2.5" style="stroke:#181818;stroke-width:0.5;" width="57.5398" x="546.2765" y="90.0679"/><text fill="#000000" font-family="sans-serif" font-size="14" lengthAdjust="spacing" textLength="43.5398" x="553.2765" y="112.0339">Bifrost</text><rect fill="#E2E2F0" height="33.0679" rx="2.5" ry="2.5" style="stroke:#181818;stroke-width:0.5;" width="57.5398" x="546.2765" y="620.314"/><text fill="#000000" font-family="sans-serif" font-size="14" lengthAdjust="spacing" textLength="43.5398" x="553.2765" y="642.28">Bifrost</text><text fill="#000000" font-family="sans-serif" font-size="14" lengthAdjust="spacing" textLength="57.6938" x="702.9327" y="120.0339">Postgres</text><path d="M716.7796,69.0679 C716.7796,59.0679 734.7796,59.0679 734.7796,59.0679 C734.7796,59.0679 752.7796,59.0679 752.7796,69.0679 L752.7796,95.0679 C752.7796,105.0679 734.7796,105.0679 734.7796,105.0679 C734.7796,105.0679 716.7796,105.0679 716.7796,95.0679 L716.7796,69.0679 " fill="#E2E2F0" style="stroke:#181818;stroke-width:1.5;"/><path d="M716.7796,69.0679 C716.7796,79.0679 734.7796,79.0679 734.7796,79.0679 C734.7796,79.0679 752.7796,79.0679 752.7796,69.0679 " fill="none" style="stroke:#181818;stroke-width:1.5;"/><text fill="#000000" font-family="sans-serif" font-size="14" lengthAdjust="spacing" textLength="57.6938" x="702.9327" y="635.28">Postgres</text><path d="M716.7796,649.382 C716.7796,639.382 734.7796,639.382 734.7796,639.382 C734.7796,639.382 752.7796,639.382 752.7796,649.382 L752.7796,675.382 C752.7796,685.382 734.7796,685.382 734.7796,685.382 C734.7796,685.382 716.7796,685.382 716.7796,675.382 L716.7796,649.382 " fill="#E2E2F0" style="stroke:#181818;stroke-width:1.5;"/><path d="M716.7796,649.382 C716.7796,659.382 734.7796,659.382 734.7796,659.382 C734.7796,659.382 752.7796,659.382 752.7796,649.382 " fill="none" style="stroke:#181818;stroke-width:1.5;"/><polygon fill="#181818" points="344.0203,153.8419,354.0203,157.8419,344.0203,161.8419,348.0203,157.8419" style="stroke:#181818;stroke-width:1.0;"/><line style="stroke:#181818;stroke-width:1.0;" x1="23.3089" x2="350.0203" y1="157.8419" y2="157.8419"/><text fill="#000000" font-family="sans-serif" font-size="13" lengthAdjust="spacing" textLength="239.8892" x="30.3089" y="152.0328">Navigate to heartbeat monitoring page</text><polygon fill="#181818" points="344.0203,185.5479,354.0203,189.5479,344.0203,193.5479,348.0203,189.5479" style="stroke:#181818;stroke-width:1.0;"/><line style="stroke:#181818;stroke-width:1.0;" x1="23.3089" x2="350.0203" y1="189.5479" y2="189.5479"/><text fill="#000000" font-family="sans-serif" font-size="13" lengthAdjust="spacing" textLength="213.6031" x="30.3089" y="183.7389">Navigate to create heartbeat check</text><polygon fill="#181818" points="344.0203,217.2539,354.0203,221.2539,344.0203,225.2539,348.0203,221.2539" style="stroke:#181818;stroke-width:1.0;"/><line style="stroke:#181818;stroke-width:1.0;" x1="23.3089" x2="350.0203" y1="221.2539" y2="221.2539"/><text fill="#000000" font-family="sans-serif" font-size="13" lengthAdjust="spacing" textLength="308.7113" x="30.3089" y="215.4449">Configure check with name, period and grace time</text><polygon fill="#181818" points="344.0203,248.9599,354.0203,252.9599,344.0203,256.9599,348.0203,252.9599" style="stroke:#181818;stroke-width:1.0;"/><line style="stroke:#181818;stroke-width:1.0;" x1="23.3089" x2="350.0203" y1="252.9599" y2="252.9599"/><text fill="#000000" font-family="sans-serif" font-size="13" lengthAdjust="spacing" textLength="89.9731" x="30.3089" y="247.1509">Save the check</text><line style="stroke:#181818;stroke-width:1.0;" x1="356.0203" x2="398.0203" y1="284.6659" y2="284.6659"/><line style="stroke:#181818;stroke-width:1.0;" x1="398.0203" x2="398.0203" y1="284.6659" y2="297.6659"/><line style="stroke:#181818;stroke-width:1.0;" x1="357.0203" x2="398.0203" y1="297.6659" y2="297.6659"/><polygon fill="#181818" points="367.0203,293.6659,357.0203,297.6659,367.0203,301.6659,363.0203,297.6659" style="stroke:#181818;stroke-width:1.0;"/><text fill="#000000" font-family="sans-serif" font-size="13" lengthAdjust="spacing" textLength="122.9151" x="363.0203" y="278.8569">Validate the request</text><polygon fill="#181818" points="563.0465,325.3719,573.0465,329.3719,563.0465,333.3719,567.0465,329.3719" style="stroke:#181818;stroke-width:1.0;"/><line style="stroke:#181818;stroke-width:1.0;" x1="356.0203" x2="569.0465" y1="329.3719" y2="329.3719"/><text fill="#000000" font-family="sans-serif" font-size="13" lengthAdjust="spacing" textLength="195.0262" x="363.0203" y="323.5629">Send the check details to bifrost</text><line style="stroke:#181818;stroke-width:1.0;" x1="575.0465" x2="617.0465" y1="361.0779" y2="361.0779"/><line style="stroke:#181818;stroke-width:1.0;" x1="617.0465" x2="617.0465" y1="361.0779" y2="374.0779"/><line style="stroke:#181818;stroke-width:1.0;" x1="576.0465" x2="617.0465" y1="374.0779" y2="374.0779"/><polygon fill="#181818" points="586.0465,370.0779,576.0465,374.0779,586.0465,378.0779,582.0465,374.0779" style="stroke:#181818;stroke-width:1.0;"/><text fill="#000000" font-family="sans-serif" font-size="13" lengthAdjust="spacing" textLength="122.9151" x="582.0465" y="355.2689">Validate the request</text><line style="stroke:#181818;stroke-width:1.0;" x1="575.0465" x2="617.0465" y1="405.784" y2="405.784"/><line style="stroke:#181818;stroke-width:1.0;" x1="617.0465" x2="617.0465" y1="405.784" y2="418.784"/><line style="stroke:#181818;stroke-width:1.0;" x1="576.0465" x2="617.0465" y1="418.784" y2="418.784"/><polygon fill="#181818" points="586.0465,414.784,576.0465,418.784,586.0465,422.784,582.0465,418.784" style="stroke:#181818;stroke-width:1.0;"/><text fill="#000000" font-family="sans-serif" font-size="13" lengthAdjust="spacing" textLength="120.9261" x="582.0465" y="399.975">Process the request</text><polygon fill="#181818" points="722.7796,446.49,732.7796,450.49,722.7796,454.49,726.7796,450.49" style="stroke:#181818;stroke-width:1.0;"/><line style="stroke:#181818;stroke-width:1.0;" x1="575.0465" x2="728.7796" y1="450.49" y2="450.49"/><text fill="#000000" font-family="sans-serif" font-size="13" lengthAdjust="spacing" textLength="135.7331" x="582.0465" y="444.681">Send the check details</text><line style="stroke:#181818;stroke-width:1.0;" x1="734.7796" x2="776.7796" y1="482.196" y2="482.196"/><line style="stroke:#181818;stroke-width:1.0;" x1="776.7796" x2="776.7796" y1="482.196" y2="495.196"/><line style="stroke:#181818;stroke-width:1.0;" x1="735.7796" x2="776.7796" y1="495.196" y2="495.196"/><polygon fill="#181818" points="745.7796,491.196,735.7796,495.196,745.7796,499.196,741.7796,495.196" style="stroke:#181818;stroke-width:1.0;"/><text fill="#000000" font-family="sans-serif" font-size="13" lengthAdjust="spacing" textLength="137.6311" x="741.7796" y="476.387">Store the check details</text><polygon fill="#181818" points="586.0465,522.902,576.0465,526.902,586.0465,530.902,582.0465,526.902" style="stroke:#181818;stroke-width:1.0;"/><line style="stroke:#181818;stroke-width:1.0;" x1="580.0465" x2="733.7796" y1="526.902" y2="526.902"/><text fill="#000000" font-family="sans-serif" font-size="13" lengthAdjust="spacing" textLength="38.831" x="592.0465" y="521.093">return</text><polygon fill="#181818" points="367.0203,554.608,357.0203,558.608,367.0203,562.608,363.0203,558.608" style="stroke:#181818;stroke-width:1.0;"/><line style="stroke:#181818;stroke-width:1.0;" x1="361.0203" x2="574.0465" y1="558.608" y2="558.608"/><text fill="#000000" font-family="sans-serif" font-size="13" lengthAdjust="spacing" textLength="118.4951" x="373.0203" y="552.799">return success msg</text><line style="stroke:#181818;stroke-width:1.0;" x1="356.0203" x2="398.0203" y1="590.314" y2="590.314"/><line style="stroke:#181818;stroke-width:1.0;" x1="398.0203" x2="398.0203" y1="590.314" y2="603.314"/><line style="stroke:#181818;stroke-width:1.0;" x1="357.0203" x2="398.0203" y1="603.314" y2="603.314"/><polygon fill="#181818" points="367.0203,599.314,357.0203,603.314,367.0203,607.314,363.0203,603.314" style="stroke:#181818;stroke-width:1.0;"/><text fill="#000000" font-family="sans-serif" font-size="13" lengthAdjust="spacing" textLength="197.3532" x="363.0203" y="584.505">navigate to heartbeat checks list</text><!--SRC=[XPAnReD038PtdiBAr4hj2tJeq4nTgaXLsjaSvh02TyGsgVhsFHAW90A5ZRlF_d__FZrmQ56m0Qke8R3ucnbRJR0LGkCO89PG4OhbwHzSHUxme9rpf0hgAA1mVCpGMHJOAqcMsXaxRZ4ORBufX_txvkhmZKk9Qbc1XZagGVfswS0BQTQtWEVNgH9Uu0DFxD5wSpCdJGoSD3buQD7JlKBNZqEtaonLRMCesNT25mH-s2e8sD0Jj9I6BG130LxGfSRSB2f_uedwH0ULwUQQ-iAQYxE_H0eTEqgfpDaXgRuX9Ssf8HHaoBNsW-L3cYDxLRQei4Zk99vNkWAE-rcraat43PrsH7VmVnT2racO2y_Ykbp2-FWQzMl1XiKNSpQWKBFQ7m00]--></g></svg>