<svg xmlns="http://www.w3.org/2000/svg" xmlns:xlink="http://www.w3.org/1999/xlink" contentStyleType="text/css" height="736px" preserveAspectRatio="none" style="width:927px;height:736px;background:#DDDDDD;" version="1.1" viewBox="0 0 927 736" width="927px" zoomAndPan="magnify"><title>Creation of heartbeat check(success scenario)</title><defs/><g><rect fill="#DDDDDD" height="736" style="stroke:none;stroke-width:1.0;" width="927" x="0" y="0"/><text fill="#000000" font-family="sans-serif" font-size="14" font-weight="bold" lengthAdjust="spacing" textLength="321.0328" x="302.0329" y="29.9659">Creation of heartbeat check(success scenario)</text><line style="stroke:#454645;stroke-width:0.5;stroke-dasharray:5.0,5.0;" x1="23" x2="23" y1="124.1358" y2="653.0201"/><line style="stroke:#454645;stroke-width:0.5;stroke-dasharray:5.0,5.0;" x1="355.9474" x2="355.9474" y1="124.1358" y2="653.0201"/><line style="stroke:#454645;stroke-width:0.5;stroke-dasharray:5.0,5.0;" x1="581.8216" x2="581.8216" y1="124.1358" y2="653.0201"/><line style="stroke:#454645;stroke-width:0.5;stroke-dasharray:5.0,5.0;" x1="741.0827" x2="741.0827" y1="124.1358" y2="653.0201"/><line style="stroke:#454645;stroke-width:0.5;stroke-dasharray:5.0,5.0;" x1="893.0228" x2="893.0228" y1="124.1358" y2="653.0201"/><text fill="#454645" font-family="sans-serif" font-size="14" lengthAdjust="spacing" textLength="30.6179" x="5" y="120.0339">User</text><ellipse cx="23.3089" cy="53.5679" fill="#454645" rx="8" ry="8" style="stroke:#454645;stroke-width:0.5;"/><path d="M23.3089,61.5679 L23.3089,88.5679 M10.3089,69.5679 L36.3089,69.5679 M23.3089,88.5679 L10.3089,103.5679 M23.3089,88.5679 L36.3089,103.5679 " fill="none" style="stroke:#454645;stroke-width:0.5;"/><text fill="#454645" font-family="sans-serif" font-size="14" lengthAdjust="spacing" textLength="30.6179" x="5" y="666.986">User</text><ellipse cx="23.3089" cy="679.588" fill="#454645" rx="8" ry="8" style="stroke:#454645;stroke-width:0.5;"/><path d="M23.3089,687.588 L23.3089,714.588 M10.3089,695.588 L36.3089,695.588 M23.3089,714.588 L10.3089,729.588 M23.3089,714.588 L36.3089,729.588 " fill="none" style="stroke:#454645;stroke-width:0.5;"/><rect fill="#FF6F61" height="33.0679" rx="3.5" ry="3.5" style="stroke:#454645;stroke-width:1.5;" width="62.1458" x="324.9474" y="90.0679"/><text fill="#FFFFFF" font-family="sans-serif" font-size="14" lengthAdjust="spacing" textLength="48.1458" x="331.9474" y="112.0339">Web UI</text><rect fill="#FF6F61" height="33.0679" rx="3.5" ry="3.5" style="stroke:#454645;stroke-width:1.5;" width="62.1458" x="324.9474" y="652.0201"/><text fill="#FFFFFF" font-family="sans-serif" font-size="14" lengthAdjust="spacing" textLength="48.1458" x="331.9474" y="673.986">Web UI</text><rect fill="#FF6F61" height="33.0679" rx="3.5" ry="3.5" style="stroke:#454645;stroke-width:1.5;" width="64.7498" x="549.8216" y="90.0679"/><text fill="#FFFFFF" font-family="sans-serif" font-size="14" lengthAdjust="spacing" textLength="50.7498" x="556.8216" y="112.0339">App-api</text><rect fill="#FF6F61" height="33.0679" rx="3.5" ry="3.5" style="stroke:#454645;stroke-width:1.5;" width="64.7498" x="549.8216" y="652.0201"/><text fill="#FFFFFF" font-family="sans-serif" font-size="14" lengthAdjust="spacing" textLength="50.7498" x="556.8216" y="673.986">App-api</text><text fill="#454645" font-family="sans-serif" font-size="14" lengthAdjust="spacing" textLength="57.6938" x="710.0827" y="120.0339">Postgres</text><path d="M723.9296,69.0679 C723.9296,59.0679 741.9296,59.0679 741.9296,59.0679 C741.9296,59.0679 759.9296,59.0679 759.9296,69.0679 L759.9296,95.0679 C759.9296,105.0679 741.9296,105.0679 741.9296,105.0679 C741.9296,105.0679 723.9296,105.0679 723.9296,95.0679 L723.9296,69.0679 " fill="#98DDDE" style="stroke:#454645;stroke-width:1.5;"/><path d="M723.9296,69.0679 C723.9296,79.0679 741.9296,79.0679 741.9296,79.0679 C741.9296,79.0679 759.9296,79.0679 759.9296,69.0679 " fill="none" style="stroke:#454645;stroke-width:1.5;"/><text fill="#454645" font-family="sans-serif" font-size="14" lengthAdjust="spacing" textLength="57.6938" x="710.0827" y="666.986">Postgres</text><path d="M723.9296,681.088 C723.9296,671.088 741.9296,671.088 741.9296,671.088 C741.9296,671.088 759.9296,671.088 759.9296,681.088 L759.9296,707.088 C759.9296,717.088 741.9296,717.088 741.9296,717.088 C741.9296,717.088 723.9296,717.088 723.9296,707.088 L723.9296,681.088 " fill="#98DDDE" style="stroke:#454645;stroke-width:1.5;"/><path d="M723.9296,681.088 C723.9296,691.088 741.9296,691.088 741.9296,691.088 C741.9296,691.088 759.9296,691.088 759.9296,681.088 " fill="none" style="stroke:#454645;stroke-width:1.5;"/><rect fill="#FF6F61" height="33.0679" rx="3.5" ry="3.5" style="stroke:#454645;stroke-width:1.5;" width="55.0759" x="866.0228" y="90.0679"/><text fill="#FFFFFF" font-family="sans-serif" font-size="14" lengthAdjust="spacing" textLength="41.0759" x="873.0228" y="112.0339">Pulsar</text><rect fill="#FF6F61" height="33.0679" rx="3.5" ry="3.5" style="stroke:#454645;stroke-width:1.5;" width="55.0759" x="866.0228" y="652.0201"/><text fill="#FFFFFF" font-family="sans-serif" font-size="14" lengthAdjust="spacing" textLength="41.0759" x="873.0228" y="673.986">Pulsar</text><polygon fill="#454645" points="344.0203,153.8419,354.0203,157.8419,344.0203,161.8419,348.0203,157.8419" style="stroke:#454645;stroke-width:1.0;"/><line style="stroke:#454645;stroke-width:1.0;" x1="23.3089" x2="350.0203" y1="157.8419" y2="157.8419"/><text fill="#000000" font-family="sans-serif" font-size="13" lengthAdjust="spacing" textLength="239.8892" x="30.3089" y="152.0328">Navigate to heartbeat monitoring page</text><polygon fill="#454645" points="344.0203,185.5479,354.0203,189.5479,344.0203,193.5479,348.0203,189.5479" style="stroke:#454645;stroke-width:1.0;"/><line style="stroke:#454645;stroke-width:1.0;" x1="23.3089" x2="350.0203" y1="189.5479" y2="189.5479"/><text fill="#000000" font-family="sans-serif" font-size="13" lengthAdjust="spacing" textLength="213.6031" x="30.3089" y="183.7389">Navigate to create heartbeat check</text><polygon fill="#454645" points="344.0203,217.2539,354.0203,221.2539,344.0203,225.2539,348.0203,221.2539" style="stroke:#454645;stroke-width:1.0;"/><line style="stroke:#454645;stroke-width:1.0;" x1="23.3089" x2="350.0203" y1="221.2539" y2="221.2539"/><text fill="#000000" font-family="sans-serif" font-size="13" lengthAdjust="spacing" textLength="308.7113" x="30.3089" y="215.4449">Configure check with name, period and grace time</text><polygon fill="#454645" points="344.0203,248.9599,354.0203,252.9599,344.0203,256.9599,348.0203,252.9599" style="stroke:#454645;stroke-width:1.0;"/><line style="stroke:#454645;stroke-width:1.0;" x1="23.3089" x2="350.0203" y1="252.9599" y2="252.9599"/><text fill="#000000" font-family="sans-serif" font-size="13" lengthAdjust="spacing" textLength="89.9731" x="30.3089" y="247.1509">Save the check</text><line style="stroke:#454645;stroke-width:1.0;" x1="356.0203" x2="398.0203" y1="284.6659" y2="284.6659"/><line style="stroke:#454645;stroke-width:1.0;" x1="398.0203" x2="398.0203" y1="284.6659" y2="297.6659"/><line style="stroke:#454645;stroke-width:1.0;" x1="357.0203" x2="398.0203" y1="297.6659" y2="297.6659"/><polygon fill="#454645" points="367.0203,293.6659,357.0203,297.6659,367.0203,301.6659,363.0203,297.6659" style="stroke:#454645;stroke-width:1.0;"/><text fill="#000000" font-family="sans-serif" font-size="13" lengthAdjust="spacing" textLength="122.9151" x="363.0203" y="278.8569">Validate the request</text><polygon fill="#454645" points="570.1965,325.3719,580.1965,329.3719,570.1965,333.3719,574.1965,329.3719" style="stroke:#454645;stroke-width:1.0;"/><line style="stroke:#454645;stroke-width:1.0;" x1="356.0203" x2="576.1965" y1="329.3719" y2="329.3719"/><text fill="#000000" font-family="sans-serif" font-size="13" lengthAdjust="spacing" textLength="202.1762" x="363.0203" y="323.5629">Send the check details to App-api</text><line style="stroke:#454645;stroke-width:1.0;" x1="582.1965" x2="624.1965" y1="361.0779" y2="361.0779"/><line style="stroke:#454645;stroke-width:1.0;" x1="624.1965" x2="624.1965" y1="361.0779" y2="374.0779"/><line style="stroke:#454645;stroke-width:1.0;" x1="583.1965" x2="624.1965" y1="374.0779" y2="374.0779"/><polygon fill="#454645" points="593.1965,370.0779,583.1965,374.0779,593.1965,378.0779,589.1965,374.0779" style="stroke:#454645;stroke-width:1.0;"/><text fill="#000000" font-family="sans-serif" font-size="13" lengthAdjust="spacing" textLength="122.9151" x="589.1965" y="355.2689">Validate the request</text><line style="stroke:#454645;stroke-width:1.0;" x1="582.1965" x2="624.1965" y1="405.784" y2="405.784"/><line style="stroke:#454645;stroke-width:1.0;" x1="624.1965" x2="624.1965" y1="405.784" y2="418.784"/><line style="stroke:#454645;stroke-width:1.0;" x1="583.1965" x2="624.1965" y1="418.784" y2="418.784"/><polygon fill="#454645" points="593.1965,414.784,583.1965,418.784,593.1965,422.784,589.1965,418.784" style="stroke:#454645;stroke-width:1.0;"/><text fill="#000000" font-family="sans-serif" font-size="13" lengthAdjust="spacing" textLength="120.9261" x="589.1965" y="399.975">Process the request</text><polygon fill="#454645" points="729.9296,446.49,739.9296,450.49,729.9296,454.49,733.9296,450.49" style="stroke:#454645;stroke-width:1.0;"/><line style="stroke:#454645;stroke-width:1.0;" x1="582.1965" x2="735.9296" y1="450.49" y2="450.49"/><text fill="#000000" font-family="sans-serif" font-size="13" lengthAdjust="spacing" textLength="135.7331" x="589.1965" y="444.681">Send the check details</text><line style="stroke:#454645;stroke-width:1.0;" x1="741.9296" x2="783.9296" y1="482.196" y2="482.196"/><line style="stroke:#454645;stroke-width:1.0;" x1="783.9296" x2="783.9296" y1="482.196" y2="495.196"/><line style="stroke:#454645;stroke-width:1.0;" x1="742.9296" x2="783.9296" y1="495.196" y2="495.196"/><polygon fill="#454645" points="752.9296,491.196,742.9296,495.196,752.9296,499.196,748.9296,495.196" style="stroke:#454645;stroke-width:1.0;"/><text fill="#000000" font-family="sans-serif" font-size="13" lengthAdjust="spacing" textLength="137.6311" x="748.9296" y="476.387">Store the check details</text><polygon fill="#454645" points="593.1965,522.902,583.1965,526.902,593.1965,530.902,589.1965,526.902" style="stroke:#454645;stroke-width:1.0;"/><line style="stroke:#454645;stroke-width:1.0;" x1="587.1965" x2="740.9296" y1="526.902" y2="526.902"/><text fill="#000000" font-family="sans-serif" font-size="13" lengthAdjust="spacing" textLength="38.831" x="599.1965" y="521.093">return</text><polygon fill="#454645" points="881.5607,554.608,891.5607,558.608,881.5607,562.608,885.5607,558.608" style="stroke:#454645;stroke-width:1.0;"/><line style="stroke:#454645;stroke-width:1.0;" x1="582.1965" x2="887.5607" y1="558.608" y2="558.608"/><text fill="#000000" font-family="sans-serif" font-size="13" lengthAdjust="spacing" textLength="111.3841" x="589.1965" y="552.799">send check details</text><polygon fill="#454645" points="367.0203,586.314,357.0203,590.314,367.0203,594.314,363.0203,590.314" style="stroke:#454645;stroke-width:1.0;"/><line style="stroke:#454645;stroke-width:1.0;" x1="361.0203" x2="581.1965" y1="590.314" y2="590.314"/><text fill="#000000" font-family="sans-serif" font-size="13" lengthAdjust="spacing" textLength="118.4951" x="373.0203" y="584.505">return success msg</text><line style="stroke:#454645;stroke-width:1.0;" x1="356.0203" x2="398.0203" y1="622.0201" y2="622.0201"/><line style="stroke:#454645;stroke-width:1.0;" x1="398.0203" x2="398.0203" y1="622.0201" y2="635.0201"/><line style="stroke:#454645;stroke-width:1.0;" x1="357.0203" x2="398.0203" y1="635.0201" y2="635.0201"/><polygon fill="#454645" points="367.0203,631.0201,357.0203,635.0201,367.0203,639.0201,363.0203,635.0201" style="stroke:#454645;stroke-width:1.0;"/><text fill="#000000" font-family="sans-serif" font-size="13" lengthAdjust="spacing" textLength="197.3532" x="363.0203" y="616.2111">navigate to heartbeat checks list</text><!--SRC=[XPBFJiCm3CRlUGhJ4qZi1JWWePsue4dJuEobNchH9Y5sXtXxqcxhrghLUalzy_VvtuDMr11e-3FAMXEi4w5oy10EK14ctUSts8hizwEqrf88Y2MFYSEJGQiXmKuecPXPjXpHAnHVj8VTUp7- -HRZ2YCNfaJ5FGf1_ZP1r2MI4RffQy5aEbrOlGvoy08VU6I7sbLyKruJFET2s3k8wEXUekrwf6bxSrdhu0_isaGd17vPA_3Oq3D4oXCe0Nq9Bg7DmjpCEc_nc8FLMS8CaJ7rYJMNVNsPJFJJakYOlOolawJiEaX2IOfSIzVQ6J9NUf8wxxD4RrBeDxu8NzQtM9GPY0cTzqLtyDjA4ccR_CIyFvCSbCvwF0kOD7MTz4a9BiVSY5lQYPyzjjv7e6RHVm00]--></g></svg>