<svg xmlns="http://www.w3.org/2000/svg" xmlns:xlink="http://www.w3.org/1999/xlink" contentStyleType="text/css" height="863px" preserveAspectRatio="none" style="width:995px;height:863px;background:#FFFFFF;" version="1.1" viewBox="0 0 995 863" width="995px" zoomAndPan="magnify"><title>Ping the heartbeat endpoint(success ping scenario)</title><defs/><g><text fill="#000000" font-family="sans-serif" font-size="14" font-weight="bold" lengthAdjust="spacing" textLength="359.0987" x="317.605" y="29.9659">Ping the heartbeat endpoint(success ping scenario)</text><line style="stroke:#181818;stroke-width:0.5;stroke-dasharray:5.0,5.0;" x1="23" x2="23" y1="124.1358" y2="779.8441"/><line style="stroke:#181818;stroke-width:0.5;stroke-dasharray:5.0,5.0;" x1="287.1252" x2="287.1252" y1="124.1358" y2="779.8441"/><line style="stroke:#181818;stroke-width:0.5;stroke-dasharray:5.0,5.0;" x1="358.2711" x2="358.2711" y1="124.1358" y2="779.8441"/><line style="stroke:#181818;stroke-width:0.5;stroke-dasharray:5.0,5.0;" x1="565.7225" x2="565.7225" y1="124.1358" y2="779.8441"/><line style="stroke:#181818;stroke-width:0.5;stroke-dasharray:5.0,5.0;" x1="788.1137" x2="788.1137" y1="124.1358" y2="779.8441"/><text fill="#000000" font-family="sans-serif" font-size="14" lengthAdjust="spacing" textLength="30.6179" x="5" y="120.0339">User</text><ellipse cx="23.3089" cy="53.5679" fill="#E2E2F0" rx="8" ry="8" style="stroke:#181818;stroke-width:0.5;"/><path d="M23.3089,61.5679 L23.3089,88.5679 M10.3089,69.5679 L36.3089,69.5679 M23.3089,88.5679 L10.3089,103.5679 M23.3089,88.5679 L36.3089,103.5679 " fill="none" style="stroke:#181818;stroke-width:0.5;"/><text fill="#000000" font-family="sans-serif" font-size="14" lengthAdjust="spacing" textLength="30.6179" x="5" y="793.8101">User</text><ellipse cx="23.3089" cy="806.412" fill="#E2E2F0" rx="8" ry="8" style="stroke:#181818;stroke-width:0.5;"/><path d="M23.3089,814.412 L23.3089,841.412 M10.3089,822.412 L36.3089,822.412 M23.3089,841.412 L10.3089,856.412 M23.3089,841.412 L36.3089,856.412 " fill="none" style="stroke:#181818;stroke-width:0.5;"/><rect fill="#E2E2F0" height="33.0679" rx="2.5" ry="2.5" style="stroke:#181818;stroke-width:0.5;" width="62.1458" x="256.1252" y="90.0679"/><text fill="#000000" font-family="sans-serif" font-size="14" lengthAdjust="spacing" textLength="48.1458" x="263.1252" y="112.0339">Web UI</text><rect fill="#E2E2F0" height="33.0679" rx="2.5" ry="2.5" style="stroke:#181818;stroke-width:0.5;" width="62.1458" x="256.1252" y="778.8441"/><text fill="#000000" font-family="sans-serif" font-size="14" lengthAdjust="spacing" textLength="48.1458" x="263.1252" y="800.8101">Web UI</text><rect fill="#E2E2F0" height="33.0679" rx="2.5" ry="2.5" style="stroke:#181818;stroke-width:0.5;" width="60.7038" x="328.2711" y="90.0679"/><text fill="#000000" font-family="sans-serif" font-size="14" lengthAdjust="spacing" textLength="46.7038" x="335.2711" y="112.0339">Service</text><rect fill="#E2E2F0" height="33.0679" rx="2.5" ry="2.5" style="stroke:#181818;stroke-width:0.5;" width="60.7038" x="328.2711" y="778.8441"/><text fill="#000000" font-family="sans-serif" font-size="14" lengthAdjust="spacing" textLength="46.7038" x="335.2711" y="800.8101">Service</text><rect fill="#E2E2F0" height="33.0679" rx="2.5" ry="2.5" style="stroke:#181818;stroke-width:0.5;" width="57.5398" x="537.7225" y="90.0679"/><text fill="#000000" font-family="sans-serif" font-size="14" lengthAdjust="spacing" textLength="43.5398" x="544.7225" y="112.0339">Bifrost</text><rect fill="#E2E2F0" height="33.0679" rx="2.5" ry="2.5" style="stroke:#181818;stroke-width:0.5;" width="57.5398" x="537.7225" y="778.8441"/><text fill="#000000" font-family="sans-serif" font-size="14" lengthAdjust="spacing" textLength="43.5398" x="544.7225" y="800.8101">Bifrost</text><text fill="#000000" font-family="sans-serif" font-size="14" lengthAdjust="spacing" textLength="57.6938" x="757.1137" y="120.0339">Postgres</text><path d="M770.9606,69.0679 C770.9606,59.0679 788.9606,59.0679 788.9606,59.0679 C788.9606,59.0679 806.9606,59.0679 806.9606,69.0679 L806.9606,95.0679 C806.9606,105.0679 788.9606,105.0679 788.9606,105.0679 C788.9606,105.0679 770.9606,105.0679 770.9606,95.0679 L770.9606,69.0679 " fill="#E2E2F0" style="stroke:#181818;stroke-width:1.5;"/><path d="M770.9606,69.0679 C770.9606,79.0679 788.9606,79.0679 788.9606,79.0679 C788.9606,79.0679 806.9606,79.0679 806.9606,69.0679 " fill="none" style="stroke:#181818;stroke-width:1.5;"/><text fill="#000000" font-family="sans-serif" font-size="14" lengthAdjust="spacing" textLength="57.6938" x="757.1137" y="793.8101">Postgres</text><path d="M770.9606,807.912 C770.9606,797.912 788.9606,797.912 788.9606,797.912 C788.9606,797.912 806.9606,797.912 806.9606,807.912 L806.9606,833.912 C806.9606,843.912 788.9606,843.912 788.9606,843.912 C788.9606,843.912 770.9606,843.912 770.9606,833.912 L770.9606,807.912 " fill="#E2E2F0" style="stroke:#181818;stroke-width:1.5;"/><path d="M770.9606,807.912 C770.9606,817.912 788.9606,817.912 788.9606,817.912 C788.9606,817.912 806.9606,817.912 806.9606,807.912 " fill="none" style="stroke:#181818;stroke-width:1.5;"/><polygon fill="#181818" points="275.1982,153.8419,285.1982,157.8419,275.1982,161.8419,279.1982,157.8419" style="stroke:#181818;stroke-width:1.0;"/><line style="stroke:#181818;stroke-width:1.0;" x1="23.3089" x2="281.1982" y1="157.8419" y2="157.8419"/><text fill="#000000" font-family="sans-serif" font-size="13" lengthAdjust="spacing" textLength="239.8892" x="30.3089" y="152.0328">Navigate to heartbeat monitoring page</text><polygon fill="#181818" points="275.1982,185.5479,285.1982,189.5479,275.1982,193.5479,279.1982,189.5479" style="stroke:#181818;stroke-width:1.0;"/><line style="stroke:#181818;stroke-width:1.0;" x1="23.3089" x2="281.1982" y1="189.5479" y2="189.5479"/><text fill="#000000" font-family="sans-serif" font-size="13" lengthAdjust="spacing" textLength="152.4901" x="30.3089" y="183.7389">Create a heartbeat check</text><polygon fill="#181818" points="275.1982,217.2539,285.1982,221.2539,275.1982,225.2539,279.1982,221.2539" style="stroke:#181818;stroke-width:1.0;"/><line style="stroke:#181818;stroke-width:1.0;" x1="23.3089" x2="281.1982" y1="221.2539" y2="221.2539"/><text fill="#000000" font-family="sans-serif" font-size="13" lengthAdjust="spacing" textLength="121.9011" x="30.3089" y="215.4449">Copy heartbeat URL</text><polygon fill="#181818" points="346.623,248.9599,356.623,252.9599,346.623,256.9599,350.623,252.9599" style="stroke:#181818;stroke-width:1.0;"/><line style="stroke:#181818;stroke-width:1.0;" x1="23.3089" x2="352.623" y1="252.9599" y2="252.9599"/><text fill="#000000" font-family="sans-serif" font-size="13" lengthAdjust="spacing" textLength="196.9502" x="30.3089" y="247.1509">Create a cronjob to ping HB URL</text><polygon fill="#181818" points="554.4924,280.6659,564.4924,284.6659,554.4924,288.6659,558.4924,284.6659" style="stroke:#181818;stroke-width:1.0;"/><line style="stroke:#181818;stroke-width:1.0;" x1="358.623" x2="560.4924" y1="284.6659" y2="284.6659"/><text fill="#000000" font-family="sans-serif" font-size="13" lengthAdjust="spacing" textLength="94.0421" x="365.623" y="278.8569">Ping the bifrost</text><line style="stroke:#181818;stroke-width:1.0;" x1="566.4924" x2="608.4924" y1="316.3719" y2="316.3719"/><line style="stroke:#181818;stroke-width:1.0;" x1="608.4924" x2="608.4924" y1="316.3719" y2="329.3719"/><line style="stroke:#181818;stroke-width:1.0;" x1="567.4924" x2="608.4924" y1="329.3719" y2="329.3719"/><polygon fill="#181818" points="577.4924,325.3719,567.4924,329.3719,577.4924,333.3719,573.4924,329.3719" style="stroke:#181818;stroke-width:1.0;"/><text fill="#000000" font-family="sans-serif" font-size="13" lengthAdjust="spacing" textLength="208.4682" x="573.4924" y="310.5629">Process the request(get the UUID)</text><polygon fill="#181818" points="776.9606,357.0779,786.9606,361.0779,776.9606,365.0779,780.9606,361.0779" style="stroke:#181818;stroke-width:1.0;"/><line style="stroke:#181818;stroke-width:1.0;" x1="566.4924" x2="782.9606" y1="361.0779" y2="361.0779"/><text fill="#000000" font-family="sans-serif" font-size="13" lengthAdjust="spacing" textLength="154.9341" x="573.4924" y="355.2689">Request the check details</text><polygon fill="#181818" points="577.4924,388.784,567.4924,392.784,577.4924,396.784,573.4924,392.784" style="stroke:#181818;stroke-width:1.0;"/><line style="stroke:#181818;stroke-width:1.0;" x1="571.4924" x2="787.9606" y1="392.784" y2="392.784"/><text fill="#000000" font-family="sans-serif" font-size="13" lengthAdjust="spacing" textLength="144.0661" x="583.4924" y="386.975">return the check details</text><line style="stroke:#181818;stroke-width:1.0;" x1="566.4924" x2="608.4924" y1="424.49" y2="424.49"/><line style="stroke:#181818;stroke-width:1.0;" x1="608.4924" x2="608.4924" y1="424.49" y2="437.49"/><line style="stroke:#181818;stroke-width:1.0;" x1="567.4924" x2="608.4924" y1="437.49" y2="437.49"/><polygon fill="#181818" points="577.4924,433.49,567.4924,437.49,577.4924,441.49,573.4924,437.49" style="stroke:#181818;stroke-width:1.0;"/><text fill="#000000" font-family="sans-serif" font-size="13" lengthAdjust="spacing" textLength="146.9651" x="573.4924" y="418.681">Update the check status</text><polygon fill="#181818" points="776.9606,465.196,786.9606,469.196,776.9606,473.196,780.9606,469.196" style="stroke:#181818;stroke-width:1.0;"/><line style="stroke:#181818;stroke-width:1.0;" x1="566.4924" x2="782.9606" y1="469.196" y2="469.196"/><text fill="#000000" font-family="sans-serif" font-size="13" lengthAdjust="spacing" textLength="135.7331" x="573.4924" y="463.387">Send the check details</text><line style="stroke:#181818;stroke-width:1.0;" x1="788.9606" x2="830.9606" y1="500.902" y2="500.902"/><line style="stroke:#181818;stroke-width:1.0;" x1="830.9606" x2="830.9606" y1="500.902" y2="513.902"/><line style="stroke:#181818;stroke-width:1.0;" x1="789.9606" x2="830.9606" y1="513.902" y2="513.902"/><polygon fill="#181818" points="799.9606,509.902,789.9606,513.902,799.9606,517.902,795.9606,513.902" style="stroke:#181818;stroke-width:1.0;"/><text fill="#000000" font-family="sans-serif" font-size="13" lengthAdjust="spacing" textLength="192.3482" x="795.9606" y="495.093">Store the updated check details</text><polygon fill="#181818" points="776.9606,541.608,786.9606,545.608,776.9606,549.608,780.9606,545.608" style="stroke:#181818;stroke-width:1.0;"/><line style="stroke:#181818;stroke-width:1.0;" x1="566.4924" x2="782.9606" y1="545.608" y2="545.608"/><text fill="#000000" font-family="sans-serif" font-size="13" lengthAdjust="spacing" textLength="154.9081" x="573.4924" y="539.799">Request the check events</text><polygon fill="#181818" points="577.4924,573.314,567.4924,577.314,577.4924,581.314,573.4924,577.314" style="stroke:#181818;stroke-width:1.0;"/><line style="stroke:#181818;stroke-width:1.0;" x1="571.4924" x2="787.9606" y1="577.314" y2="577.314"/><text fill="#000000" font-family="sans-serif" font-size="13" lengthAdjust="spacing" textLength="135.7071" x="583.4924" y="571.505">Send the check events</text><line style="stroke:#181818;stroke-width:1.0;" x1="566.4924" x2="608.4924" y1="609.0201" y2="609.0201"/><line style="stroke:#181818;stroke-width:1.0;" x1="608.4924" x2="608.4924" y1="609.0201" y2="622.0201"/><line style="stroke:#181818;stroke-width:1.0;" x1="567.4924" x2="608.4924" y1="622.0201" y2="622.0201"/><polygon fill="#181818" points="577.4924,618.0201,567.4924,622.0201,577.4924,626.0201,573.4924,622.0201" style="stroke:#181818;stroke-width:1.0;"/><text fill="#000000" font-family="sans-serif" font-size="13" lengthAdjust="spacing" textLength="150.0201" x="573.4924" y="603.2111">Update the check events</text><polygon fill="#181818" points="776.9606,649.7261,786.9606,653.7261,776.9606,657.7261,780.9606,653.7261" style="stroke:#181818;stroke-width:1.0;"/><line style="stroke:#181818;stroke-width:1.0;" x1="566.4924" x2="782.9606" y1="653.7261" y2="653.7261"/><text fill="#000000" font-family="sans-serif" font-size="13" lengthAdjust="spacing" textLength="135.7071" x="573.4924" y="647.9171">Send the check events</text><line style="stroke:#181818;stroke-width:1.0;" x1="788.9606" x2="830.9606" y1="685.4321" y2="685.4321"/><line style="stroke:#181818;stroke-width:1.0;" x1="830.9606" x2="830.9606" y1="685.4321" y2="698.4321"/><line style="stroke:#181818;stroke-width:1.0;" x1="789.9606" x2="830.9606" y1="698.4321" y2="698.4321"/><polygon fill="#181818" points="799.9606,694.4321,789.9606,698.4321,799.9606,702.4321,795.9606,698.4321" style="stroke:#181818;stroke-width:1.0;"/><text fill="#000000" font-family="sans-serif" font-size="13" lengthAdjust="spacing" textLength="137.6051" x="795.9606" y="679.6231">Store the check events</text><polygon fill="#181818" points="577.4924,726.1381,567.4924,730.1381,577.4924,734.1381,573.4924,730.1381" style="stroke:#181818;stroke-width:1.0;"/><line style="stroke:#181818;stroke-width:1.0;" x1="571.4924" x2="787.9606" y1="730.1381" y2="730.1381"/><text fill="#000000" font-family="sans-serif" font-size="13" lengthAdjust="spacing" textLength="41.548" x="583.4924" y="724.3291">Return</text><polygon fill="#181818" points="298.1982,757.8441,288.1982,761.8441,298.1982,765.8441,294.1982,761.8441" style="stroke:#181818;stroke-width:1.0;"/><line style="stroke:#181818;stroke-width:1.0;" x1="292.1982" x2="565.4924" y1="761.8441" y2="761.8441"/><text fill="#000000" font-family="sans-serif" font-size="13" lengthAdjust="spacing" textLength="255.2942" x="304.1982" y="756.0351">Send the updated check and check events</text><!--SRC=[ZPB1JiCm38RlVGfhf-t02t3WC3Wm2Q6fKyNPJKqR64bmt4gyFMdMLYcqiDxgVB_z_qv4ovdWg4qDqX0qX2mbeG2PobbjPEjRfSXxS3tZ5HbaRNSPAh4CXIVEND1efHqQWSqBbL0SDhFYYRZJYcQrlNvbwoMhKB14Jn2-OoZKJ3xhsyBDtTGDRk4PErsZ48XDN7vOeuEFtfh3cfQ4zqoz31ELQaYzBxBMVILSaJzDr90XRQZOcZTRzexYSXxtKJ6IGJI43A9fm-MGUpoQKspZhdkGwRCbBzkQ9FuNnU5Xbyh6RGLTVc4Z5yD1HOBwxBC9cirXafRD0hxegd1LNFn4Uq5f_OgNKtWv_nX9wN1xbzPjd5Aj6_epBtLaP2tk3qi3UrtMt_1wrWKJYr6li9p76qh79izq6ZlV6PfgrleR]--></g></svg>