<svg xmlns="http://www.w3.org/2000/svg" xmlns:xlink="http://www.w3.org/1999/xlink" contentStyleType="text/css" height="749px" preserveAspectRatio="none" style="width:1264px;height:749px;background:#DDDDDD;" version="1.1" viewBox="0 0 1264 749" width="1264px" zoomAndPan="magnify"><title>Ping the heartbeat endpoint(success ping scenario)</title><defs/><g><rect fill="#DDDDDD" height="749" style="stroke:none;stroke-width:1.0;" width="1264" x="0" y="0"/><text fill="#000000" font-family="sans-serif" font-size="14" font-weight="bold" lengthAdjust="spacing" textLength="359.0987" x="451.8473" y="29.9659">Ping the heartbeat endpoint(success ping scenario)</text><line style="stroke:#454645;stroke-width:0.5;stroke-dasharray:5.0,5.0;" x1="23" x2="23" y1="124.1358" y2="666.0201"/><line style="stroke:#454645;stroke-width:0.5;stroke-dasharray:5.0,5.0;" x1="287.1252" x2="287.1252" y1="124.1358" y2="666.0201"/><line style="stroke:#454645;stroke-width:0.5;stroke-dasharray:5.0,5.0;" x1="358.2711" x2="358.2711" y1="124.1358" y2="666.0201"/><line style="stroke:#454645;stroke-width:0.5;stroke-dasharray:5.0,5.0;" x1="496.7783" x2="496.7783" y1="124.1358" y2="666.0201"/><line style="stroke:#454645;stroke-width:0.5;stroke-dasharray:5.0,5.0;" x1="817.0956" x2="817.0956" y1="124.1358" y2="666.0201"/><line style="stroke:#454645;stroke-width:0.5;stroke-dasharray:5.0,5.0;" x1="1026.3566" x2="1026.3566" y1="124.1358" y2="666.0201"/><line style="stroke:#454645;stroke-width:0.5;stroke-dasharray:5.0,5.0;" x1="1155.0738" x2="1155.0738" y1="124.1358" y2="666.0201"/><line style="stroke:#454645;stroke-width:0.5;stroke-dasharray:5.0,5.0;" x1="1230.7175" x2="1230.7175" y1="124.1358" y2="666.0201"/><text fill="#454645" font-family="sans-serif" font-size="14" lengthAdjust="spacing" textLength="30.6179" x="5" y="120.0339">User</text><ellipse cx="23.3089" cy="53.5679" fill="#454645" rx="8" ry="8" style="stroke:#454645;stroke-width:0.5;"/><path d="M23.3089,61.5679 L23.3089,88.5679 M10.3089,69.5679 L36.3089,69.5679 M23.3089,88.5679 L10.3089,103.5679 M23.3089,88.5679 L36.3089,103.5679 " fill="none" style="stroke:#454645;stroke-width:0.5;"/><text fill="#454645" font-family="sans-serif" font-size="14" lengthAdjust="spacing" textLength="30.6179" x="5" y="679.986">User</text><ellipse cx="23.3089" cy="692.588" fill="#454645" rx="8" ry="8" style="stroke:#454645;stroke-width:0.5;"/><path d="M23.3089,700.588 L23.3089,727.588 M10.3089,708.588 L36.3089,708.588 M23.3089,727.588 L10.3089,742.588 M23.3089,727.588 L36.3089,742.588 " fill="none" style="stroke:#454645;stroke-width:0.5;"/><rect fill="#FF6F61" height="33.0679" rx="3.5" ry="3.5" style="stroke:#454645;stroke-width:1.5;" width="62.1458" x="256.1252" y="90.0679"/><text fill="#FFFFFF" font-family="sans-serif" font-size="14" lengthAdjust="spacing" textLength="48.1458" x="263.1252" y="112.0339">Web UI</text><rect fill="#FF6F61" height="33.0679" rx="3.5" ry="3.5" style="stroke:#454645;stroke-width:1.5;" width="62.1458" x="256.1252" y="665.0201"/><text fill="#FFFFFF" font-family="sans-serif" font-size="14" lengthAdjust="spacing" textLength="48.1458" x="263.1252" y="686.986">Web UI</text><rect fill="#FF6F61" height="33.0679" rx="3.5" ry="3.5" style="stroke:#454645;stroke-width:1.5;" width="60.7038" x="328.2711" y="90.0679"/><text fill="#FFFFFF" font-family="sans-serif" font-size="14" lengthAdjust="spacing" textLength="46.7038" x="335.2711" y="112.0339">Service</text><rect fill="#FF6F61" height="33.0679" rx="3.5" ry="3.5" style="stroke:#454645;stroke-width:1.5;" width="60.7038" x="328.2711" y="665.0201"/><text fill="#FFFFFF" font-family="sans-serif" font-size="14" lengthAdjust="spacing" textLength="46.7038" x="335.2711" y="686.986">Service</text><rect fill="#FF6F61" height="33.0679" rx="3.5" ry="3.5" style="stroke:#454645;stroke-width:1.5;" width="127.0356" x="433.7783" y="90.0679"/><text fill="#FFFFFF" font-family="sans-serif" font-size="14" lengthAdjust="spacing" textLength="113.0356" x="440.7783" y="112.0339">Heartbeat-Server</text><rect fill="#FF6F61" height="33.0679" rx="3.5" ry="3.5" style="stroke:#454645;stroke-width:1.5;" width="127.0356" x="433.7783" y="665.0201"/><text fill="#FFFFFF" font-family="sans-serif" font-size="14" lengthAdjust="spacing" textLength="113.0356" x="440.7783" y="686.986">Heartbeat-Server</text><rect fill="#FF6F61" height="33.0679" rx="3.5" ry="3.5" style="stroke:#454645;stroke-width:1.5;" width="131.5856" x="752.0956" y="90.0679"/><text fill="#FFFFFF" font-family="sans-serif" font-size="14" lengthAdjust="spacing" textLength="117.5856" x="759.0956" y="112.0339">Heartbeat-Service</text><rect fill="#FF6F61" height="33.0679" rx="3.5" ry="3.5" style="stroke:#454645;stroke-width:1.5;" width="131.5856" x="752.0956" y="665.0201"/><text fill="#FFFFFF" font-family="sans-serif" font-size="14" lengthAdjust="spacing" textLength="117.5856" x="759.0956" y="686.986">Heartbeat-Service</text><text fill="#454645" font-family="sans-serif" font-size="14" lengthAdjust="spacing" textLength="57.6938" x="995.3566" y="120.0339">Postgres</text><path d="M1009.2035,69.0679 C1009.2035,59.0679 1027.2035,59.0679 1027.2035,59.0679 C1027.2035,59.0679 1045.2035,59.0679 1045.2035,69.0679 L1045.2035,95.0679 C1045.2035,105.0679 1027.2035,105.0679 1027.2035,105.0679 C1027.2035,105.0679 1009.2035,105.0679 1009.2035,95.0679 L1009.2035,69.0679 " fill="#98DDDE" style="stroke:#454645;stroke-width:1.5;"/><path d="M1009.2035,69.0679 C1009.2035,79.0679 1027.2035,79.0679 1027.2035,79.0679 C1027.2035,79.0679 1045.2035,79.0679 1045.2035,69.0679 " fill="none" style="stroke:#454645;stroke-width:1.5;"/><text fill="#454645" font-family="sans-serif" font-size="14" lengthAdjust="spacing" textLength="57.6938" x="995.3566" y="679.986">Postgres</text><path d="M1009.2035,694.088 C1009.2035,684.088 1027.2035,684.088 1027.2035,684.088 C1027.2035,684.088 1045.2035,684.088 1045.2035,694.088 L1045.2035,720.088 C1045.2035,730.088 1027.2035,730.088 1027.2035,730.088 C1027.2035,730.088 1009.2035,730.088 1009.2035,720.088 L1009.2035,694.088 " fill="#98DDDE" style="stroke:#454645;stroke-width:1.5;"/><path d="M1009.2035,694.088 C1009.2035,704.088 1027.2035,704.088 1027.2035,704.088 C1027.2035,704.088 1045.2035,704.088 1045.2035,694.088 " fill="none" style="stroke:#454645;stroke-width:1.5;"/><text fill="#454645" font-family="sans-serif" font-size="14" lengthAdjust="spacing" textLength="70.6437" x="1117.0738" y="120.0339">Clickhouse</text><path d="M1137.3956,69.0679 C1137.3956,59.0679 1155.3956,59.0679 1155.3956,59.0679 C1155.3956,59.0679 1173.3956,59.0679 1173.3956,69.0679 L1173.3956,95.0679 C1173.3956,105.0679 1155.3956,105.0679 1155.3956,105.0679 C1155.3956,105.0679 1137.3956,105.0679 1137.3956,95.0679 L1137.3956,69.0679 " fill="#98DDDE" style="stroke:#454645;stroke-width:1.5;"/><path d="M1137.3956,69.0679 C1137.3956,79.0679 1155.3956,79.0679 1155.3956,79.0679 C1155.3956,79.0679 1173.3956,79.0679 1173.3956,69.0679 " fill="none" style="stroke:#454645;stroke-width:1.5;"/><text fill="#454645" font-family="sans-serif" font-size="14" lengthAdjust="spacing" textLength="70.6437" x="1117.0738" y="679.986">Clickhouse</text><path d="M1137.3956,694.088 C1137.3956,684.088 1155.3956,684.088 1155.3956,684.088 C1155.3956,684.088 1173.3956,684.088 1173.3956,694.088 L1173.3956,720.088 C1173.3956,730.088 1155.3956,730.088 1155.3956,730.088 C1155.3956,730.088 1137.3956,730.088 1137.3956,720.088 L1137.3956,694.088 " fill="#98DDDE" style="stroke:#454645;stroke-width:1.5;"/><path d="M1137.3956,694.088 C1137.3956,704.088 1155.3956,704.088 1155.3956,704.088 C1155.3956,704.088 1173.3956,704.088 1173.3956,694.088 " fill="none" style="stroke:#454645;stroke-width:1.5;"/><rect fill="#FF6F61" height="33.0679" rx="3.5" ry="3.5" style="stroke:#454645;stroke-width:1.5;" width="55.0759" x="1203.7175" y="90.0679"/><text fill="#FFFFFF" font-family="sans-serif" font-size="14" lengthAdjust="spacing" textLength="41.0759" x="1210.7175" y="112.0339">Pulsar</text><rect fill="#FF6F61" height="33.0679" rx="3.5" ry="3.5" style="stroke:#454645;stroke-width:1.5;" width="55.0759" x="1203.7175" y="665.0201"/><text fill="#FFFFFF" font-family="sans-serif" font-size="14" lengthAdjust="spacing" textLength="41.0759" x="1210.7175" y="686.986">Pulsar</text><polygon fill="#454645" points="275.1982,153.8419,285.1982,157.8419,275.1982,161.8419,279.1982,157.8419" style="stroke:#454645;stroke-width:1.0;"/><line style="stroke:#454645;stroke-width:1.0;" x1="23.3089" x2="281.1982" y1="157.8419" y2="157.8419"/><text fill="#000000" font-family="sans-serif" font-size="13" lengthAdjust="spacing" textLength="239.8892" x="30.3089" y="152.0328">Navigate to heartbeat monitoring page</text><polygon fill="#454645" points="275.1982,185.5479,285.1982,189.5479,275.1982,193.5479,279.1982,189.5479" style="stroke:#454645;stroke-width:1.0;"/><line style="stroke:#454645;stroke-width:1.0;" x1="23.3089" x2="281.1982" y1="189.5479" y2="189.5479"/><text fill="#000000" font-family="sans-serif" font-size="13" lengthAdjust="spacing" textLength="160.0691" x="30.3089" y="183.7389">Copy heartbeat check URL</text><polygon fill="#454645" points="346.623,217.2539,356.623,221.2539,346.623,225.2539,350.623,221.2539" style="stroke:#454645;stroke-width:1.0;"/><line style="stroke:#454645;stroke-width:1.0;" x1="23.3089" x2="352.623" y1="221.2539" y2="221.2539"/><text fill="#000000" font-family="sans-serif" font-size="13" lengthAdjust="spacing" textLength="196.9502" x="30.3089" y="215.4449">Create a cronjob to ping HB URL</text><polygon fill="#454645" points="485.2961,248.9599,495.2961,252.9599,485.2961,256.9599,489.2961,252.9599" style="stroke:#454645;stroke-width:1.0;"/><line style="stroke:#454645;stroke-width:1.0;" x1="358.623" x2="491.2961" y1="252.9599" y2="252.9599"/><text fill="#000000" font-family="sans-serif" font-size="13" lengthAdjust="spacing" textLength="114.6731" x="365.623" y="247.1509">Ping the HB Server</text><line style="stroke:#454645;stroke-width:1.0;" x1="497.2961" x2="539.2961" y1="284.6659" y2="284.6659"/><line style="stroke:#454645;stroke-width:1.0;" x1="539.2961" x2="539.2961" y1="284.6659" y2="297.6659"/><line style="stroke:#454645;stroke-width:1.0;" x1="498.2961" x2="539.2961" y1="297.6659" y2="297.6659"/><polygon fill="#454645" points="508.2961,293.6659,498.2961,297.6659,508.2961,301.6659,504.2961,297.6659" style="stroke:#454645;stroke-width:1.0;"/><text fill="#000000" font-family="sans-serif" font-size="13" lengthAdjust="spacing" textLength="208.4682" x="504.2961" y="278.8569">Process the request(get the UUID)</text><line style="stroke:#454645;stroke-width:1.0;" x1="497.2961" x2="539.2961" y1="329.3719" y2="329.3719"/><line style="stroke:#454645;stroke-width:1.0;" x1="539.2961" x2="539.2961" y1="329.3719" y2="342.3719"/><line style="stroke:#454645;stroke-width:1.0;" x1="498.2961" x2="539.2961" y1="342.3719" y2="342.3719"/><polygon fill="#454645" points="508.2961,338.3719,498.2961,342.3719,508.2961,346.3719,504.2961,342.3719" style="stroke:#454645;stroke-width:1.0;"/><text fill="#000000" font-family="sans-serif" font-size="13" lengthAdjust="spacing" textLength="306.5923" x="504.2961" y="323.5629">Validate the request(using exposed api of app-api)</text><polygon fill="#454645" points="1219.2554,370.0779,1229.2554,374.0779,1219.2554,378.0779,1223.2554,374.0779" style="stroke:#454645;stroke-width:1.0;"/><line style="stroke:#454645;stroke-width:1.0;" x1="497.2961" x2="1225.2554" y1="374.0779" y2="374.0779"/><text fill="#000000" font-family="sans-serif" font-size="13" lengthAdjust="spacing" textLength="169.8842" x="504.2961" y="368.2689">Send check details to pulsar</text><line style="stroke:#454645;stroke-width:1.0;" x1="817.8884" x2="859.8884" y1="405.784" y2="405.784"/><line style="stroke:#454645;stroke-width:1.0;" x1="859.8884" x2="859.8884" y1="405.784" y2="418.784"/><line style="stroke:#454645;stroke-width:1.0;" x1="818.8884" x2="859.8884" y1="418.784" y2="418.784"/><polygon fill="#454645" points="828.8884,414.784,818.8884,418.784,828.8884,422.784,824.8884,418.784" style="stroke:#454645;stroke-width:1.0;"/><text fill="#000000" font-family="sans-serif" font-size="13" lengthAdjust="spacing" textLength="178.1781" x="824.8884" y="399.975">Get check details from pulsar</text><line style="stroke:#454645;stroke-width:1.0;" x1="817.8884" x2="859.8884" y1="450.49" y2="450.49"/><line style="stroke:#454645;stroke-width:1.0;" x1="859.8884" x2="859.8884" y1="450.49" y2="463.49"/><line style="stroke:#454645;stroke-width:1.0;" x1="818.8884" x2="859.8884" y1="463.49" y2="463.49"/><polygon fill="#454645" points="828.8884,459.49,818.8884,463.49,828.8884,467.49,824.8884,463.49" style="stroke:#454645;stroke-width:1.0;"/><text fill="#000000" font-family="sans-serif" font-size="13" lengthAdjust="spacing" textLength="126.6071" x="824.8884" y="444.681">Update check details</text><polygon fill="#454645" points="1015.2035,491.196,1025.2035,495.196,1015.2035,499.196,1019.2035,495.196" style="stroke:#454645;stroke-width:1.0;"/><line style="stroke:#454645;stroke-width:1.0;" x1="817.8884" x2="1021.2035" y1="495.196" y2="495.196"/><text fill="#000000" font-family="sans-serif" font-size="13" lengthAdjust="spacing" textLength="185.3152" x="824.8884" y="489.387">Send check details to postgres</text><line style="stroke:#454645;stroke-width:1.0;" x1="1027.2035" x2="1069.2035" y1="526.902" y2="526.902"/><line style="stroke:#454645;stroke-width:1.0;" x1="1069.2035" x2="1069.2035" y1="526.902" y2="539.902"/><line style="stroke:#454645;stroke-width:1.0;" x1="1028.2035" x2="1069.2035" y1="539.902" y2="539.902"/><polygon fill="#454645" points="1038.2035,535.902,1028.2035,539.902,1038.2035,543.902,1034.2035,539.902" style="stroke:#454645;stroke-width:1.0;"/><text fill="#000000" font-family="sans-serif" font-size="13" lengthAdjust="spacing" textLength="114.1921" x="1034.2035" y="521.093">Store check details</text><line style="stroke:#454645;stroke-width:1.0;" x1="817.8884" x2="859.8884" y1="571.608" y2="571.608"/><line style="stroke:#454645;stroke-width:1.0;" x1="859.8884" x2="859.8884" y1="571.608" y2="584.608"/><line style="stroke:#454645;stroke-width:1.0;" x1="818.8884" x2="859.8884" y1="584.608" y2="584.608"/><polygon fill="#454645" points="828.8884,580.608,818.8884,584.608,828.8884,588.608,824.8884,584.608" style="stroke:#454645;stroke-width:1.0;"/><text fill="#000000" font-family="sans-serif" font-size="13" lengthAdjust="spacing" textLength="108.3681" x="824.8884" y="565.799">Create ping event</text><polygon fill="#454645" points="1143.3956,612.314,1153.3956,616.314,1143.3956,620.314,1147.3956,616.314" style="stroke:#454645;stroke-width:1.0;"/><line style="stroke:#454645;stroke-width:1.0;" x1="817.8884" x2="1149.3956" y1="616.314" y2="616.314"/><text fill="#000000" font-family="sans-serif" font-size="13" lengthAdjust="spacing" textLength="181.5712" x="824.8884" y="610.505">Send ping event to clickhouse</text><polygon fill="#454645" points="1143.3956,644.0201,1153.3956,648.0201,1143.3956,652.0201,1147.3956,648.0201" style="stroke:#454645;stroke-width:1.0;"/><line style="stroke:#454645;stroke-width:1.0;" x1="817.8884" x2="1149.3956" y1="648.0201" y2="648.0201"/><text fill="#000000" font-family="sans-serif" font-size="13" lengthAdjust="spacing" textLength="100.5291" x="824.8884" y="642.2111">Store ping event</text><!--SRC=[dLDDSu8m4BtpAxQSzE0VyD13xKnrfjDnwj2Ubx12Af8qMPpwxvj40R7GiUK2RDvx-_OZTrpGde3LCMB99S5QLZcu81I4XbD21geohMJ54riBGTQ2zXWhg48ZrJH2mSf0Oib4sd6aa1ehXlYTKaXMSI-u8NEGWlh0PPDgve_9nByTEtOSPSYOeYLmprfPpWtPNd1HIh4hL6txgTPrQT54tYlCxbkBC8SNFCWSsRVYelIzggGhpjUhCQSXuaBfumL352HsaBm-jzYpQGyrv3CW2AEg3vNwNA6NouV0Q90-mO-UE7ux6uS_HQC1t2ZRg30zBs3eioRBavmu_2V9wd7w5x4tB6KMsdMXLbjlaBwqifG1QWbgwrvwvZx7r4yJSOeRjsRdxcN4A4iRsdCQsC0E35WBuJay4Ly9ROtQ_qigqQ78djgOGhE7uxKqYzeYhrXkqsxCDUpsl5zXfUX05O_HkzlHcEqutgdeRizD2i5u9_4D]--></g></svg>