<svg xmlns="http://www.w3.org/2000/svg" xmlns:xlink="http://www.w3.org/1999/xlink" contentStyleType="text/css" height="546px" preserveAspectRatio="none" style="width:1433px;height:546px;background:#DDDDDD;" version="1.1" viewBox="0 0 1433 546" width="1433px" zoomAndPan="magnify"><title>Ping the heartbeat endpoint(success alert notification scenario)</title><defs/><g><rect fill="#DDDDDD" height="546" style="stroke:none;stroke-width:1.0;" width="1433" x="0" y="0"/><text fill="#000000" font-family="sans-serif" font-size="14" font-weight="bold" lengthAdjust="spacing" textLength="446.7383" x="492.5894" y="29.9659">Ping the heartbeat endpoint(success alert notification scenario)</text><line style="stroke:#454645;stroke-width:0.5;stroke-dasharray:5.0,5.0;" x1="23" x2="23" y1="124.1358" y2="462.784"/><line style="stroke:#454645;stroke-width:0.5;stroke-dasharray:5.0,5.0;" x1="243.9072" x2="243.9072" y1="124.1358" y2="462.784"/><line style="stroke:#454645;stroke-width:0.5;stroke-dasharray:5.0,5.0;" x1="382.4145" x2="382.4145" y1="124.1358" y2="462.784"/><line style="stroke:#454645;stroke-width:0.5;stroke-dasharray:5.0,5.0;" x1="521.45" x2="521.45" y1="124.1358" y2="462.784"/><line style="stroke:#454645;stroke-width:0.5;stroke-dasharray:5.0,5.0;" x1="1399.8414" x2="1399.8414" y1="124.1358" y2="462.784"/><text fill="#454645" font-family="sans-serif" font-size="14" lengthAdjust="spacing" textLength="30.6179" x="5" y="120.0339">User</text><ellipse cx="23.3089" cy="53.5679" fill="#454645" rx="8" ry="8" style="stroke:#454645;stroke-width:0.5;"/><path d="M23.3089,61.5679 L23.3089,88.5679 M10.3089,69.5679 L36.3089,69.5679 M23.3089,88.5679 L10.3089,103.5679 M23.3089,88.5679 L36.3089,103.5679 " fill="none" style="stroke:#454645;stroke-width:0.5;"/><text fill="#454645" font-family="sans-serif" font-size="14" lengthAdjust="spacing" textLength="30.6179" x="5" y="476.7499">User</text><ellipse cx="23.3089" cy="489.3519" fill="#454645" rx="8" ry="8" style="stroke:#454645;stroke-width:0.5;"/><path d="M23.3089,497.3519 L23.3089,524.3519 M10.3089,505.3519 L36.3089,505.3519 M23.3089,524.3519 L10.3089,539.3519 M23.3089,524.3519 L36.3089,539.3519 " fill="none" style="stroke:#454645;stroke-width:0.5;"/><rect fill="#FF6F61" height="33.0679" rx="3.5" ry="3.5" style="stroke:#454645;stroke-width:1.5;" width="60.7038" x="213.9072" y="90.0679"/><text fill="#FFFFFF" font-family="sans-serif" font-size="14" lengthAdjust="spacing" textLength="46.7038" x="220.9072" y="112.0339">Service</text><rect fill="#FF6F61" height="33.0679" rx="3.5" ry="3.5" style="stroke:#454645;stroke-width:1.5;" width="60.7038" x="213.9072" y="461.784"/><text fill="#FFFFFF" font-family="sans-serif" font-size="14" lengthAdjust="spacing" textLength="46.7038" x="220.9072" y="483.7499">Service</text><rect fill="#FF6F61" height="33.0679" rx="3.5" ry="3.5" style="stroke:#454645;stroke-width:1.5;" width="127.0356" x="319.4145" y="90.0679"/><text fill="#FFFFFF" font-family="sans-serif" font-size="14" lengthAdjust="spacing" textLength="113.0356" x="326.4145" y="112.0339">Heartbeat-Server</text><rect fill="#FF6F61" height="33.0679" rx="3.5" ry="3.5" style="stroke:#454645;stroke-width:1.5;" width="127.0356" x="319.4145" y="461.784"/><text fill="#FFFFFF" font-family="sans-serif" font-size="14" lengthAdjust="spacing" textLength="113.0356" x="326.4145" y="483.7499">Heartbeat-Server</text><rect fill="#FF6F61" height="33.0679" rx="3.5" ry="3.5" style="stroke:#454645;stroke-width:1.5;" width="131.5856" x="456.45" y="90.0679"/><text fill="#FFFFFF" font-family="sans-serif" font-size="14" lengthAdjust="spacing" textLength="117.5856" x="463.45" y="112.0339">Heartbeat-Service</text><rect fill="#FF6F61" height="33.0679" rx="3.5" ry="3.5" style="stroke:#454645;stroke-width:1.5;" width="131.5856" x="456.45" y="461.784"/><text fill="#FFFFFF" font-family="sans-serif" font-size="14" lengthAdjust="spacing" textLength="117.5856" x="463.45" y="483.7499">Heartbeat-Service</text><rect fill="#FF6F61" height="33.0679" rx="3.5" ry="3.5" style="stroke:#454645;stroke-width:1.5;" width="55.0759" x="1372.8414" y="90.0679"/><text fill="#FFFFFF" font-family="sans-serif" font-size="14" lengthAdjust="spacing" textLength="41.0759" x="1379.8414" y="112.0339">Pulsar</text><rect fill="#FF6F61" height="33.0679" rx="3.5" ry="3.5" style="stroke:#454645;stroke-width:1.5;" width="55.0759" x="1372.8414" y="461.784"/><text fill="#FFFFFF" font-family="sans-serif" font-size="14" lengthAdjust="spacing" textLength="41.0759" x="1379.8414" y="483.7499">Pulsar</text><polygon fill="#454645" points="232.2591,153.8419,242.2591,157.8419,232.2591,161.8419,236.2591,157.8419" style="stroke:#454645;stroke-width:1.0;"/><line style="stroke:#454645;stroke-width:1.0;" x1="23.3089" x2="238.2591" y1="157.8419" y2="157.8419"/><text fill="#000000" font-family="sans-serif" font-size="13" lengthAdjust="spacing" textLength="196.9502" x="30.3089" y="152.0328">Create a cronjob to ping HB URL</text><polygon fill="#454645" points="370.9323,185.5479,380.9323,189.5479,370.9323,193.5479,374.9323,189.5479" style="stroke:#454645;stroke-width:1.0;"/><line style="stroke:#454645;stroke-width:1.0;" x1="244.2591" x2="376.9323" y1="189.5479" y2="189.5479"/><text fill="#000000" font-family="sans-serif" font-size="13" lengthAdjust="spacing" textLength="114.6731" x="251.2591" y="183.7389">Ping the HB Server</text><line style="stroke:#454645;stroke-width:1.0;" x1="382.9323" x2="424.9323" y1="221.2539" y2="221.2539"/><line style="stroke:#454645;stroke-width:1.0;" x1="424.9323" x2="424.9323" y1="221.2539" y2="234.2539"/><line style="stroke:#454645;stroke-width:1.0;" x1="383.9323" x2="424.9323" y1="234.2539" y2="234.2539"/><polygon fill="#454645" points="393.9323,230.2539,383.9323,234.2539,393.9323,238.2539,389.9323,234.2539" style="stroke:#454645;stroke-width:1.0;"/><text fill="#000000" font-family="sans-serif" font-size="13" lengthAdjust="spacing" textLength="102.1151" x="389.9323" y="215.4449">validate the ping</text><polygon fill="#454645" points="1388.3793,261.9599,1398.3793,265.9599,1388.3793,269.9599,1392.3793,265.9599" style="stroke:#454645;stroke-width:1.0;"/><line style="stroke:#454645;stroke-width:1.0;" x1="382.9323" x2="1394.3793" y1="265.9599" y2="265.9599"/><text fill="#000000" font-family="sans-serif" font-size="13" lengthAdjust="spacing" textLength="117.8451" x="389.9323" y="260.1509">Send msg to pulsar</text><line style="stroke:#454645;stroke-width:1.0;" x1="522.2428" x2="564.2428" y1="297.6659" y2="297.6659"/><line style="stroke:#454645;stroke-width:1.0;" x1="564.2428" x2="564.2428" y1="297.6659" y2="310.6659"/><line style="stroke:#454645;stroke-width:1.0;" x1="523.2428" x2="564.2428" y1="310.6659" y2="310.6659"/><polygon fill="#454645" points="533.2428,306.6659,523.2428,310.6659,533.2428,314.6659,529.2428,310.6659" style="stroke:#454645;stroke-width:1.0;"/><text fill="#000000" font-family="sans-serif" font-size="13" lengthAdjust="spacing" textLength="149.5781" x="529.2428" y="291.8569">Get the msg from pulsar</text><line style="stroke:#454645;stroke-width:1.0;" x1="522.2428" x2="564.2428" y1="342.3719" y2="342.3719"/><line style="stroke:#454645;stroke-width:1.0;" x1="564.2428" x2="564.2428" y1="342.3719" y2="355.3719"/><line style="stroke:#454645;stroke-width:1.0;" x1="523.2428" x2="564.2428" y1="355.3719" y2="355.3719"/><polygon fill="#454645" points="533.2428,351.3719,523.2428,355.3719,533.2428,359.3719,529.2428,355.3719" style="stroke:#454645;stroke-width:1.0;"/><text fill="#000000" font-family="sans-serif" font-size="13" lengthAdjust="spacing" textLength="255.7622" x="529.2428" y="336.5629">Update the check details and create event</text><line style="stroke:#454645;stroke-width:1.0;" x1="522.2428" x2="564.2428" y1="387.0779" y2="387.0779"/><line style="stroke:#454645;stroke-width:1.0;" x1="564.2428" x2="564.2428" y1="387.0779" y2="400.0779"/><line style="stroke:#454645;stroke-width:1.0;" x1="523.2428" x2="564.2428" y1="400.0779" y2="400.0779"/><polygon fill="#454645" points="533.2428,396.0779,523.2428,400.0779,533.2428,404.0779,529.2428,400.0779" style="stroke:#454645;stroke-width:1.0;"/><text fill="#000000" font-family="sans-serif" font-size="13" lengthAdjust="spacing" textLength="249.0542" x="529.2428" y="381.2689">Update the dbs(postgres and clickhouse)</text><line style="stroke:#454645;stroke-width:1.0;" x1="522.2428" x2="564.2428" y1="431.784" y2="431.784"/><line style="stroke:#454645;stroke-width:1.0;" x1="564.2428" x2="564.2428" y1="431.784" y2="444.784"/><line style="stroke:#454645;stroke-width:1.0;" x1="523.2428" x2="564.2428" y1="444.784" y2="444.784"/><polygon fill="#454645" points="533.2428,440.784,523.2428,444.784,533.2428,448.784,529.2428,444.784" style="stroke:#454645;stroke-width:1.0;"/><text fill="#000000" font-family="sans-serif" font-size="13" lengthAdjust="spacing" textLength="864.1365" x="529.2428" y="425.975">Send alert(current check details and ping events) to configured platform for the check whenever check state is updated(except initial up state)</text><!--SRC=[dLBDRi8m3BxtAJnExO4NuB33TXY77T0G3n1Sj_L8ayfnsVRsIr90coYJnYLIR7z_JXwqevv0_LUXh9PWmww5M8IEZEYUZ0AvUl3ij0mZ8eK0nf8eEA_SC1fbxo0WEIFigyAWUe5T82c6oC38Wt4AYot9aP4MlwlhiyeozKd-R5_1DwCDHeea1ij7ECt02fubOWWCe7ZtxlSn80mfsVe9Tc-lnNaoWgujHFnb2t5-gXOpSxVGHsEvJlg98SdU0a_-4sGRbmnzQBFHATLC-1d5N5x12sbMInID-FukajrmSOqTuG5gKiCsFdWqXzDAwKXExwQjzw4SVD1MwCHg6G-T7mDL_oFD2yiViSHH99gQyPoVF3iELTeiUjTmEmh5bZNQUEaX7ZyIVtJa8a1Erw39EGSOSuQwf4-aGO4TAniRozD8zGq0]--></g></svg>