<svg xmlns="http://www.w3.org/2000/svg" xmlns:xlink="http://www.w3.org/1999/xlink" contentStyleType="text/css" height="1023px" preserveAspectRatio="none" style="width:1165px;height:1023px;background:#FFFFFF;" version="1.1" viewBox="0 0 1165 1023" width="1165px" zoomAndPan="magnify"><title>Ping the heartbeat endpoint(success alert notification scenario)</title><defs/><g><text fill="#000000" font-family="sans-serif" font-size="14" font-weight="bold" lengthAdjust="spacing" textLength="446.7383" x="358.9247" y="29.9659">Ping the heartbeat endpoint(success alert notification scenario)</text><line style="stroke:#181818;stroke-width:0.5;stroke-dasharray:5.0,5.0;" x1="23" x2="23" y1="124.1358" y2="939.9622"/><line style="stroke:#181818;stroke-width:0.5;stroke-dasharray:5.0,5.0;" x1="82.6179" x2="82.6179" y1="124.1358" y2="939.9622"/><line style="stroke:#181818;stroke-width:0.5;stroke-dasharray:5.0,5.0;" x1="310.4621" x2="310.4621" y1="124.1358" y2="939.9622"/><line style="stroke:#181818;stroke-width:0.5;stroke-dasharray:5.0,5.0;" x1="548.8792" x2="548.8792" y1="124.1358" y2="939.9622"/><line style="stroke:#181818;stroke-width:0.5;stroke-dasharray:5.0,5.0;" x1="958.3926" x2="958.3926" y1="124.1358" y2="939.9622"/><text fill="#000000" font-family="sans-serif" font-size="14" lengthAdjust="spacing" textLength="30.6179" x="5" y="120.0339">User</text><ellipse cx="23.3089" cy="53.5679" fill="#E2E2F0" rx="8" ry="8" style="stroke:#181818;stroke-width:0.5;"/><path d="M23.3089,61.5679 L23.3089,88.5679 M10.3089,69.5679 L36.3089,69.5679 M23.3089,88.5679 L10.3089,103.5679 M23.3089,88.5679 L36.3089,103.5679 " fill="none" style="stroke:#181818;stroke-width:0.5;"/><text fill="#000000" font-family="sans-serif" font-size="14" lengthAdjust="spacing" textLength="30.6179" x="5" y="953.9281">User</text><ellipse cx="23.3089" cy="966.5301" fill="#E2E2F0" rx="8" ry="8" style="stroke:#181818;stroke-width:0.5;"/><path d="M23.3089,974.5301 L23.3089,1001.5301 M10.3089,982.5301 L36.3089,982.5301 M23.3089,1001.5301 L10.3089,1016.5301 M23.3089,1001.5301 L36.3089,1016.5301 " fill="none" style="stroke:#181818;stroke-width:0.5;"/><rect fill="#E2E2F0" height="33.0679" rx="2.5" ry="2.5" style="stroke:#181818;stroke-width:0.5;" width="62.1458" x="51.6179" y="90.0679"/><text fill="#000000" font-family="sans-serif" font-size="14" lengthAdjust="spacing" textLength="48.1458" x="58.6179" y="112.0339">Web UI</text><rect fill="#E2E2F0" height="33.0679" rx="2.5" ry="2.5" style="stroke:#181818;stroke-width:0.5;" width="62.1458" x="51.6179" y="938.9622"/><text fill="#000000" font-family="sans-serif" font-size="14" lengthAdjust="spacing" textLength="48.1458" x="58.6179" y="960.9281">Web UI</text><rect fill="#E2E2F0" height="33.0679" rx="2.5" ry="2.5" style="stroke:#181818;stroke-width:0.5;" width="60.7038" x="280.4621" y="90.0679"/><text fill="#000000" font-family="sans-serif" font-size="14" lengthAdjust="spacing" textLength="46.7038" x="287.4621" y="112.0339">Service</text><rect fill="#E2E2F0" height="33.0679" rx="2.5" ry="2.5" style="stroke:#181818;stroke-width:0.5;" width="60.7038" x="280.4621" y="938.9622"/><text fill="#000000" font-family="sans-serif" font-size="14" lengthAdjust="spacing" textLength="46.7038" x="287.4621" y="960.9281">Service</text><rect fill="#E2E2F0" height="33.0679" rx="2.5" ry="2.5" style="stroke:#181818;stroke-width:0.5;" width="57.5398" x="520.8792" y="90.0679"/><text fill="#000000" font-family="sans-serif" font-size="14" lengthAdjust="spacing" textLength="43.5398" x="527.8792" y="112.0339">Bifrost</text><rect fill="#E2E2F0" height="33.0679" rx="2.5" ry="2.5" style="stroke:#181818;stroke-width:0.5;" width="57.5398" x="520.8792" y="938.9622"/><text fill="#000000" font-family="sans-serif" font-size="14" lengthAdjust="spacing" textLength="43.5398" x="527.8792" y="960.9281">Bifrost</text><text fill="#000000" font-family="sans-serif" font-size="14" lengthAdjust="spacing" textLength="57.6938" x="927.3926" y="120.0339">Postgres</text><path d="M941.2395,69.0679 C941.2395,59.0679 959.2395,59.0679 959.2395,59.0679 C959.2395,59.0679 977.2395,59.0679 977.2395,69.0679 L977.2395,95.0679 C977.2395,105.0679 959.2395,105.0679 959.2395,105.0679 C959.2395,105.0679 941.2395,105.0679 941.2395,95.0679 L941.2395,69.0679 " fill="#E2E2F0" style="stroke:#181818;stroke-width:1.5;"/><path d="M941.2395,69.0679 C941.2395,79.0679 959.2395,79.0679 959.2395,79.0679 C959.2395,79.0679 977.2395,79.0679 977.2395,69.0679 " fill="none" style="stroke:#181818;stroke-width:1.5;"/><text fill="#000000" font-family="sans-serif" font-size="14" lengthAdjust="spacing" textLength="57.6938" x="927.3926" y="953.9281">Postgres</text><path d="M941.2395,968.0301 C941.2395,958.0301 959.2395,958.0301 959.2395,958.0301 C959.2395,958.0301 977.2395,958.0301 977.2395,968.0301 L977.2395,994.0301 C977.2395,1004.0301 959.2395,1004.0301 959.2395,1004.0301 C959.2395,1004.0301 941.2395,1004.0301 941.2395,994.0301 L941.2395,968.0301 " fill="#E2E2F0" style="stroke:#181818;stroke-width:1.5;"/><path d="M941.2395,968.0301 C941.2395,978.0301 959.2395,978.0301 959.2395,978.0301 C959.2395,978.0301 977.2395,978.0301 977.2395,968.0301 " fill="none" style="stroke:#181818;stroke-width:1.5;"/><polygon fill="#181818" points="298.814,153.8419,308.814,157.8419,298.814,161.8419,302.814,157.8419" style="stroke:#181818;stroke-width:1.0;"/><line style="stroke:#181818;stroke-width:1.0;" x1="23.3089" x2="304.814" y1="157.8419" y2="157.8419"/><text fill="#000000" font-family="sans-serif" font-size="13" lengthAdjust="spacing" textLength="196.9502" x="30.3089" y="152.0328">Create a cronjob to ping HB URL</text><polygon fill="#181818" points="537.6492,185.5479,547.6492,189.5479,537.6492,193.5479,541.6492,189.5479" style="stroke:#181818;stroke-width:1.0;"/><line style="stroke:#181818;stroke-width:1.0;" x1="310.814" x2="543.6492" y1="189.5479" y2="189.5479"/><text fill="#000000" font-family="sans-serif" font-size="13" lengthAdjust="spacing" textLength="94.0421" x="317.814" y="183.7389">Ping the bifrost</text><line style="stroke:#181818;stroke-width:1.0;" x1="549.6492" x2="591.6492" y1="221.2539" y2="221.2539"/><line style="stroke:#181818;stroke-width:1.0;" x1="591.6492" x2="591.6492" y1="221.2539" y2="234.2539"/><line style="stroke:#181818;stroke-width:1.0;" x1="550.6492" x2="591.6492" y1="234.2539" y2="234.2539"/><polygon fill="#181818" points="560.6492,230.2539,550.6492,234.2539,560.6492,238.2539,556.6492,234.2539" style="stroke:#181818;stroke-width:1.0;"/><text fill="#000000" font-family="sans-serif" font-size="13" lengthAdjust="spacing" textLength="208.4682" x="556.6492" y="215.4449">Process the request(get the UUID)</text><polygon fill="#181818" points="947.2395,261.9599,957.2395,265.9599,947.2395,269.9599,951.2395,265.9599" style="stroke:#181818;stroke-width:1.0;"/><line style="stroke:#181818;stroke-width:1.0;" x1="549.6492" x2="953.2395" y1="265.9599" y2="265.9599"/><text fill="#000000" font-family="sans-serif" font-size="13" lengthAdjust="spacing" textLength="154.9341" x="556.6492" y="260.1509">Request the check details</text><polygon fill="#181818" points="560.6492,293.6659,550.6492,297.6659,560.6492,301.6659,556.6492,297.6659" style="stroke:#181818;stroke-width:1.0;"/><line style="stroke:#181818;stroke-width:1.0;" x1="554.6492" x2="958.2395" y1="297.6659" y2="297.6659"/><text fill="#000000" font-family="sans-serif" font-size="13" lengthAdjust="spacing" textLength="144.0661" x="566.6492" y="291.8569">return the check details</text><line style="stroke:#181818;stroke-width:1.0;" x1="549.6492" x2="591.6492" y1="329.3719" y2="329.3719"/><line style="stroke:#181818;stroke-width:1.0;" x1="591.6492" x2="591.6492" y1="329.3719" y2="342.3719"/><line style="stroke:#181818;stroke-width:1.0;" x1="550.6492" x2="591.6492" y1="342.3719" y2="342.3719"/><polygon fill="#181818" points="560.6492,338.3719,550.6492,342.3719,560.6492,346.3719,556.6492,342.3719" style="stroke:#181818;stroke-width:1.0;"/><text fill="#000000" font-family="sans-serif" font-size="13" lengthAdjust="spacing" textLength="146.9651" x="556.6492" y="323.5629">Update the check status</text><polygon fill="#181818" points="947.2395,370.0779,957.2395,374.0779,947.2395,378.0779,951.2395,374.0779" style="stroke:#181818;stroke-width:1.0;"/><line style="stroke:#181818;stroke-width:1.0;" x1="549.6492" x2="953.2395" y1="374.0779" y2="374.0779"/><text fill="#000000" font-family="sans-serif" font-size="13" lengthAdjust="spacing" textLength="135.7331" x="556.6492" y="368.2689">Send the check details</text><line style="stroke:#181818;stroke-width:1.0;" x1="959.2395" x2="1001.2395" y1="405.784" y2="405.784"/><line style="stroke:#181818;stroke-width:1.0;" x1="1001.2395" x2="1001.2395" y1="405.784" y2="418.784"/><line style="stroke:#181818;stroke-width:1.0;" x1="960.2395" x2="1001.2395" y1="418.784" y2="418.784"/><polygon fill="#181818" points="970.2395,414.784,960.2395,418.784,970.2395,422.784,966.2395,418.784" style="stroke:#181818;stroke-width:1.0;"/><text fill="#000000" font-family="sans-serif" font-size="13" lengthAdjust="spacing" textLength="192.3482" x="966.2395" y="399.975">Store the updated check details</text><polygon fill="#181818" points="947.2395,446.49,957.2395,450.49,947.2395,454.49,951.2395,450.49" style="stroke:#181818;stroke-width:1.0;"/><line style="stroke:#181818;stroke-width:1.0;" x1="549.6492" x2="953.2395" y1="450.49" y2="450.49"/><text fill="#000000" font-family="sans-serif" font-size="13" lengthAdjust="spacing" textLength="154.9081" x="556.6492" y="444.681">Request the check events</text><polygon fill="#181818" points="560.6492,478.196,550.6492,482.196,560.6492,486.196,556.6492,482.196" style="stroke:#181818;stroke-width:1.0;"/><line style="stroke:#181818;stroke-width:1.0;" x1="554.6492" x2="958.2395" y1="482.196" y2="482.196"/><text fill="#000000" font-family="sans-serif" font-size="13" lengthAdjust="spacing" textLength="135.7071" x="566.6492" y="476.387">Send the check events</text><line style="stroke:#181818;stroke-width:1.0;" x1="549.6492" x2="591.6492" y1="513.902" y2="513.902"/><line style="stroke:#181818;stroke-width:1.0;" x1="591.6492" x2="591.6492" y1="513.902" y2="526.902"/><line style="stroke:#181818;stroke-width:1.0;" x1="550.6492" x2="591.6492" y1="526.902" y2="526.902"/><polygon fill="#181818" points="560.6492,522.902,550.6492,526.902,560.6492,530.902,556.6492,526.902" style="stroke:#181818;stroke-width:1.0;"/><text fill="#000000" font-family="sans-serif" font-size="13" lengthAdjust="spacing" textLength="150.0201" x="556.6492" y="508.093">Update the check events</text><polygon fill="#181818" points="947.2395,554.608,957.2395,558.608,947.2395,562.608,951.2395,558.608" style="stroke:#181818;stroke-width:1.0;"/><line style="stroke:#181818;stroke-width:1.0;" x1="549.6492" x2="953.2395" y1="558.608" y2="558.608"/><text fill="#000000" font-family="sans-serif" font-size="13" lengthAdjust="spacing" textLength="135.7071" x="556.6492" y="552.799">Send the check events</text><line style="stroke:#181818;stroke-width:1.0;" x1="959.2395" x2="1001.2395" y1="590.314" y2="590.314"/><line style="stroke:#181818;stroke-width:1.0;" x1="1001.2395" x2="1001.2395" y1="590.314" y2="603.314"/><line style="stroke:#181818;stroke-width:1.0;" x1="960.2395" x2="1001.2395" y1="603.314" y2="603.314"/><polygon fill="#181818" points="970.2395,599.314,960.2395,603.314,970.2395,607.314,966.2395,603.314" style="stroke:#181818;stroke-width:1.0;"/><text fill="#000000" font-family="sans-serif" font-size="13" lengthAdjust="spacing" textLength="137.6051" x="966.2395" y="584.505">Store the check events</text><polygon fill="#181818" points="560.6492,631.0201,550.6492,635.0201,560.6492,639.0201,556.6492,635.0201" style="stroke:#181818;stroke-width:1.0;"/><line style="stroke:#181818;stroke-width:1.0;" x1="554.6492" x2="958.2395" y1="635.0201" y2="635.0201"/><text fill="#000000" font-family="sans-serif" font-size="13" lengthAdjust="spacing" textLength="41.548" x="566.6492" y="629.2111">Return</text><polygon fill="#181818" points="93.6908,662.7261,83.6908,666.7261,93.6908,670.7261,89.6908,666.7261" style="stroke:#181818;stroke-width:1.0;"/><line style="stroke:#181818;stroke-width:1.0;" x1="87.6908" x2="548.6492" y1="666.7261" y2="666.7261"/><text fill="#000000" font-family="sans-serif" font-size="13" lengthAdjust="spacing" textLength="255.2942" x="99.6908" y="660.9171">Send the updated check and check events</text><line style="stroke:#181818;stroke-width:1.0;" x1="310.814" x2="352.814" y1="698.4321" y2="698.4321"/><line style="stroke:#181818;stroke-width:1.0;" x1="352.814" x2="352.814" y1="698.4321" y2="711.4321"/><line style="stroke:#181818;stroke-width:1.0;" x1="311.814" x2="352.814" y1="711.4321" y2="711.4321"/><polygon fill="#181818" points="321.814,707.4321,311.814,711.4321,321.814,715.4321,317.814,711.4321" style="stroke:#181818;stroke-width:1.0;"/><text fill="#000000" font-family="sans-serif" font-size="13" lengthAdjust="spacing" textLength="224.8352" x="317.814" y="692.6231">Service crashes due to some reasons</text><line style="stroke:#181818;stroke-width:1.0;" x1="310.814" x2="352.814" y1="743.1381" y2="743.1381"/><line style="stroke:#181818;stroke-width:1.0;" x1="352.814" x2="352.814" y1="743.1381" y2="756.1381"/><line style="stroke:#181818;stroke-width:1.0;" x1="311.814" x2="352.814" y1="756.1381" y2="756.1381"/><polygon fill="#181818" points="321.814,752.1381,311.814,756.1381,321.814,760.1381,317.814,756.1381" style="stroke:#181818;stroke-width:1.0;"/><text fill="#000000" font-family="sans-serif" font-size="13" lengthAdjust="spacing" textLength="194.6102" x="317.814" y="737.3291">Not able to ping the the HB URL</text><line style="stroke:#181818;stroke-width:1.0;" x1="549.6492" x2="591.6492" y1="787.8441" y2="787.8441"/><line style="stroke:#181818;stroke-width:1.0;" x1="591.6492" x2="591.6492" y1="787.8441" y2="800.8441"/><line style="stroke:#181818;stroke-width:1.0;" x1="550.6492" x2="591.6492" y1="800.8441" y2="800.8441"/><polygon fill="#181818" points="560.6492,796.8441,550.6492,800.8441,560.6492,804.8441,556.6492,800.8441" style="stroke:#181818;stroke-width:1.0;"/><text fill="#000000" font-family="sans-serif" font-size="13" lengthAdjust="spacing" textLength="358.9173" x="556.6492" y="782.0351">Wait for the ping till period then update the status to "late"</text><line style="stroke:#181818;stroke-width:1.0;" x1="549.6492" x2="591.6492" y1="832.5501" y2="832.5501"/><line style="stroke:#181818;stroke-width:1.0;" x1="591.6492" x2="591.6492" y1="832.5501" y2="845.5501"/><line style="stroke:#181818;stroke-width:1.0;" x1="550.6492" x2="591.6492" y1="845.5501" y2="845.5501"/><polygon fill="#181818" points="560.6492,841.5501,550.6492,845.5501,560.6492,849.5501,556.6492,845.5501" style="stroke:#181818;stroke-width:1.0;"/><text fill="#000000" font-family="sans-serif" font-size="13" lengthAdjust="spacing" textLength="395.5903" x="556.6492" y="826.7411">Wait for the ping till grace time then update the status to "down"</text><polygon fill="#181818" points="93.6908,873.2562,83.6908,877.2562,93.6908,881.2562,89.6908,877.2562" style="stroke:#181818;stroke-width:1.0;"/><line style="stroke:#181818;stroke-width:1.0;" x1="87.6908" x2="548.6492" y1="877.2562" y2="877.2562"/><text fill="#000000" font-family="sans-serif" font-size="13" lengthAdjust="spacing" textLength="199.8102" x="99.6908" y="871.4472">Send the check and event details</text><line style="stroke:#181818;stroke-width:1.0;" x1="82.6908" x2="124.6908" y1="908.9622" y2="908.9622"/><line style="stroke:#181818;stroke-width:1.0;" x1="124.6908" x2="124.6908" y1="908.9622" y2="921.9622"/><line style="stroke:#181818;stroke-width:1.0;" x1="83.6908" x2="124.6908" y1="921.9622" y2="921.9622"/><polygon fill="#181818" points="93.6908,917.9622,83.6908,921.9622,93.6908,925.9622,89.6908,921.9622" style="stroke:#181818;stroke-width:1.0;"/><text fill="#000000" font-family="sans-serif" font-size="13" lengthAdjust="spacing" textLength="214.1232" x="89.6908" y="903.1532">Update the check and event details</text><!--SRC=[bLF1Re904Btp5HDEUkWFzD23xQ4cJMCqnFEmZBeLTkdiODE_xou2GeLgJKXaU6_clTctxgXDYOm5o84A0h7VaMZ92LRQx4CH3eGiAQ40cQoqsiZCLKgHSu0viO2nedTQeMXhm2aooDhE8rHY6H977Fa9efKkqGZ4MqeXMSQ3ueRuf1KDQWkzO-iaob0mHKVWVojVs3EvABI5XwUM28_mp5uY0O9YQpviwgr06JoyBY1PlqKjqfEQpfxKcKoROUsd8OfjRJS0cJuhSZBRazJlIR9ycVTfhKJFMv-nDKuTI1qX8q6TkwW33UOmISLc13wgAYcpOFY2Te9IkGaj6tzuDuJqqVxepgshUaesBUXFltGY8rDsVqbgiFTvlGPFUnqHCMhr3idh-eJwOziuzySETuOc6xRk9V4It_QVOdG7FpQhmcK4PukGENJMJ13VhG2cENLv3mh2q-H-T9zRr08xVpq3yCpIUGub-PjRUp2DYHfm3bOO4EU-5l-hvvxHwnHTq5zzC_jbubjxlUoptcINnWuxv5s5vehv0m00]--></g></svg>